<svg xmlns="http://www.w3.org/2000/svg" width="16" height="16" viewBox="0 0 16 16">
    <path fill="#0DD0AA" fill-rule="evenodd" d="M15.392 12.518l-3.135-3.136a.96.96 0 0 0-1.357 0l-.815.816a.96.96 0 0 0-.243.945l-.308.307c-.218.22-1.579-.116-3.223-1.76-1.644-1.645-1.98-3.005-1.762-3.224l.308-.308a.965.965 0 0 0 .945-.243l.815-.815a.96.96 0 0 0 0-1.357L3.482.608a.953.953 0 0 0-.678-.282c-.257 0-.498.1-.679.282l-.815.815a.96.96 0 0 0-.243.945s-.26.263-.274.28c-.867.964-1.03 2.482-.455 4.296.563 1.777 1.777 3.66 3.418 5.3 1.64 1.64 3.523 2.855 5.3 3.418.714.226 1.381.338 1.988.338.994 0 1.823-.302 2.417-.896l.17-.17a.963.963 0 0 0 .946-.244l.815-.815a.96.96 0 0 0 0-1.357zM2.804 1.286l3.135 3.135-.815.816-.012-.012-1.556-1.556-1.568-1.568.816-.815zm9.978 13.14c-.69.69-1.91.804-3.436.32-1.633-.517-3.377-1.646-4.911-3.18C2.9 10.03 1.77 8.286 1.253 6.653.77 5.13.883 3.908 1.574 3.218l.087-.087 2.433 2.433-.223.223c-.925.927.186 3.005 1.761 4.58 1.18 1.18 2.64 2.099 3.69 2.099.352 0 .658-.104.89-.337l.224-.223 2.433 2.433-.087.087zm1.117-.414l-3.136-3.136.816-.815 3.135 3.135-.816.816z"/>
</svg>
