<svg xmlns="http://www.w3.org/2000/svg" width="24" height="24" viewBox="0 0 24 24">
    <path fill="#0DD0AA" fill-rule="evenodd" d="M23.354 3.667a2.062 2.062 0 0 0-1.513-.629h-19.7c-.589 0-1.093.21-1.512.63C.209 4.086 0 4.59 0 5.18v14.56c0 .59.21 1.093.629 1.513.42.42.923.629 1.512.629h19.7a2.06 2.06 0 0 0 1.513-.63c.419-.419.629-.923.629-1.511V5.18c0-.59-.21-1.093-.63-1.513zM22.268 19.74a.411.411 0 0 1-.127.301.41.41 0 0 1-.3.127h-19.7a.41.41 0 0 1-.302-.127.411.411 0 0 1-.127-.3V9.461c.285.321.593.616.923.883 2.392 1.838 4.292 3.346 5.702 4.524.455.384.825.682 1.11.897.286.214.672.43 1.158.649.486.218.944.327 1.372.327h.027c.428 0 .885-.109 1.371-.327.487-.219.873-.435 1.158-.65.286-.214.656-.512 1.111-.896 1.41-1.178 3.31-2.686 5.701-4.524.33-.267.638-.562.923-.883V19.74zm0-14.212v.147c0 .526-.207 1.113-.622 1.76-.415.646-.863 1.162-1.345 1.545-1.722 1.357-3.51 2.77-5.367 4.243l-.468.394c-.259.219-.464.387-.616.502-.152.117-.35.257-.595.422-.246.165-.47.288-.676.368a1.59 1.59 0 0 1-.575.12h-.027c-.179 0-.37-.04-.576-.12a3.565 3.565 0 0 1-.675-.368 12.38 12.38 0 0 1-.596-.422 17.007 17.007 0 0 1-.615-.502c-.26-.218-.415-.35-.469-.394A1968.774 1968.774 0 0 0 3.681 8.98c-1.312-1.035-1.968-2.302-1.968-3.8 0-.116.043-.217.127-.302a.411.411 0 0 1 .301-.127h19.7c.072.04.134.051.188.034.053-.018.093.015.12.1.027.085.051.125.074.12.022-.004.035.052.04.168l.006.174v.18z"/>
</svg>
