<svg xmlns="http://www.w3.org/2000/svg" xmlns:xlink="http://www.w3.org/1999/xlink" width="94" height="33" viewBox="0 0 94 33">
    <defs>
        <path id="a" d="M0 .988h32.533V32H0z"/>
    </defs>
    <g fill="none" fill-rule="evenodd">
        <path fill="#2C353E" d="M90.83 16.506c0 1.546-.958 2.788-2.579 2.788-1.62 0-2.578-1.242-2.578-2.788 0-1.526.973-2.807 2.578-2.807 1.538 0 2.578 1.338 2.578 2.807zm-7.432 0c0 2.854 1.977 4.871 4.853 4.871 2.873 0 4.871-2.014 4.871-4.87 0-2.823-2.06-4.873-4.89-4.873-2.84 0-4.834 2.058-4.834 4.872zm-3.906 4.7h2.255V7.938h-2.255v13.268zm-3.943-4.7c0 1.546-.957 2.788-2.579 2.788-1.62 0-2.578-1.242-2.578-2.788 0-1.526.974-2.807 2.578-2.807 1.54 0 2.58 1.338 2.58 2.807zm-7.43 0c0 2.854 1.975 4.871 4.851 4.871 2.873 0 4.872-2.014 4.872-4.87 0-2.823-2.06-4.873-4.89-4.873-2.84 0-4.834 2.058-4.834 4.872zm-3.907 4.7h2.255V7.938h-2.255v13.268zm-3.944-4.7c0 1.546-.956 2.788-2.578 2.788-1.622 0-2.578-1.242-2.578-2.788 0-1.526.974-2.807 2.578-2.807 1.538 0 2.578 1.338 2.578 2.807zm-7.43 0c0 2.854 1.976 4.871 4.852 4.871 2.873 0 4.872-2.014 4.872-4.87 0-2.823-2.06-4.873-4.89-4.873-2.84 0-4.834 2.058-4.834 4.872zm-9.263-4.7l-2.034 6.951a.026.026 0 0 1-.023.02.027.027 0 0 1-.025-.018l-2.345-6.953h-2.34l3.28 9.4h2.668l1.805-5.908a.024.024 0 0 1 .024-.018c.011 0 .021.007.024.018l1.804 5.908h2.67l3.26-9.4H50.02l-2.345 6.953a.025.025 0 0 1-.024.017c-.012 0-.02-.008-.024-.018l-2.052-6.952h-2z"/>
        <g transform="translate(0 .012)">
            <mask id="b" fill="#fff">
                <use xlink:href="#a"/>
            </mask>
            <path fill="#0DD0AA" d="M25.75 15.815c0-5.183-3.496-9.2-8.732-9.55 4.568 1.27 7.04 5.384 6.69 10.05-.166-4.795-3.626-8.653-8.559-8.419-5.098.146-8.365 4.335-8.365 9.234 0 5.202 3.47 9.242 8.732 9.594-4.569-1.27-7.039-5.386-6.69-10.05.165 4.793 3.626 8.652 8.558 8.418 5.12-.147 8.365-4.363 8.365-9.277M0 15.206C.704 7.19 7.505.966 15.554.988c8.214.023 15.028 6.664 15.032 14.97.004 8.61-7.233 14.977-15.76 14.123 8.387 2.072 16.566-3.456 17.707-12.299C31.833 25.764 25.077 32 17.061 32 8.79 32 1.947 25.333 1.947 16.981c0-8.548 7.294-14.92 15.76-14.074C9.32.835 1.142 6.363 0 15.207" mask="url(#b)"/>
        </g>
    </g>
</svg>
