<svg xmlns="http://www.w3.org/2000/svg" width="36" height="36" viewBox="0 0 36 36">
    <defs>
        <linearGradient id="a" x1="0%" y1="0%" y2="100%">
            <stop offset="0%" stop-color="#0DD0AA"/>
            <stop offset="100%" stop-color="#0098C1"/>
        </linearGradient>
    </defs>
    <g fill="none" fill-rule="evenodd">
        <circle cx="18" cy="18" r="18" fill="url(#a)"/>
        <path fill="#FFF" fill-rule="nonzero" d="M24.328 16.637c-.275 0-.546.028-.811.082v-4.544a.406.406 0 0 0-.406-.406h-2.434a.406.406 0 1 0 0 .812h2.029v1.622h-.447a3.452 3.452 0 0 0-3.448 3.448c0 .71-.283 1.378-.775 1.868l-1.907-5.722h.654a.406.406 0 1 0 0-.81H14.35a.406.406 0 1 0 0 .81h.925l.738 2.216-1.692 1.607a4.013 4.013 0 0 0-2.648-.983 4.061 4.061 0 0 0-4.057 4.057 4.061 4.061 0 0 0 4.057 4.056c2.1 0 3.832-1.604 4.036-3.65h.467a3.45 3.45 0 0 0 3.448-3.449 2.64 2.64 0 0 1 2.636-2.637h.447v1.961a4.063 4.063 0 0 0-2.434 3.719c0 1.474.801 2.834 2.092 3.55a.406.406 0 1 0 .393-.71 3.25 3.25 0 0 1-1.674-2.84c0-1.172.633-2.24 1.623-2.811v1.594c0 .107.042.21.118.286l1.826 1.826a.406.406 0 1 0 .573-.574l-1.706-1.706V17.55a3.249 3.249 0 0 1 4.056 3.143 3.25 3.25 0 0 1-1.674 2.84.405.405 0 1 0 .394.71 4.062 4.062 0 0 0 2.092-3.55 4.061 4.061 0 0 0-4.057-4.057zm-10.042 2.134c.329.446.536.967.605 1.517h-2.203l1.598-1.517zm-2.614-1.323a3.21 3.21 0 0 1 2.055.735l-2.217 2.105H8.453a3.25 3.25 0 0 1 3.219-2.84zm0 6.49a3.25 3.25 0 0 1-3.219-2.84h6.438a3.25 3.25 0 0 1-3.22 2.84zm4.036-3.65a4.03 4.03 0 0 0-.83-2.08l1.418-1.345 1.05 3.15c-.362.18-.762.275-1.171.275h-.467z"/>
    </g>
</svg>
