<svg xmlns="http://www.w3.org/2000/svg" width="36" height="36" viewBox="0 0 36 36">
    <defs>
        <linearGradient id="a" x1="0%" y1="0%" y2="100%">
            <stop offset="0%" stop-color="#0DD0AA"/>
            <stop offset="100%" stop-color="#0098C1"/>
        </linearGradient>
    </defs>
    <g fill="none" fill-rule="evenodd">
        <circle cx="18" cy="18" r="18" fill="url(#a)"/>
        <path fill="#FFF" fill-rule="nonzero" d="M21.239 15.996a.406.406 0 0 1-.106-.797l.017-.004a.405.405 0 1 1 .205.785l-.01.002a.402.402 0 0 1-.106.014zm2.733 3.895c-.193 0-.383-.05-.555-.15a1.106 1.106 0 0 1-.519-.676.406.406 0 0 1 .784-.21.3.3 0 0 0 .37.214.299.299 0 0 0 .183-.14.299.299 0 0 0 .03-.23.406.406 0 0 1 .784-.21c.077.287.037.587-.112.845a1.106 1.106 0 0 1-.965.557zm-3.51.94c-.192 0-.382-.05-.554-.15a1.106 1.106 0 0 1-.519-.676.406.406 0 0 1 .784-.21.3.3 0 0 0 .37.214.3.3 0 0 0 .213-.37.406.406 0 0 1 .784-.21c.077.287.037.587-.111.845a1.106 1.106 0 0 1-.966.557zm2.444 2.658c-.29 0-.574-.076-.831-.224a1.656 1.656 0 0 1-.777-1.013.406.406 0 1 1 .784-.21c.059.22.2.406.399.52a.857.857 0 0 0 1.255-.963.406.406 0 1 1 .783-.21 1.67 1.67 0 0 1-1.613 2.1zm5.282-4.218a5.766 5.766 0 0 1-5.571 7.252 5.713 5.713 0 0 1-2.19-.438 5.811 5.811 0 0 1-2.428-1.894 5.754 5.754 0 0 1-4.625 2.331 5.766 5.766 0 0 1-5.759-5.759 5.766 5.766 0 0 1 5.76-5.76c1.891 0 3.572.918 4.623 2.33.422-.57.95-1.061 1.545-1.438a.406.406 0 0 1 .434.685 4.97 4.97 0 0 0-1.509 1.498c.425.803.666 1.716.666 2.685 0 .969-.241 1.882-.666 2.685a4.972 4.972 0 0 0 5.437 2.093 4.953 4.953 0 0 0 3.499-6.06 4.941 4.941 0 0 0-4.483-3.66.406.406 0 0 1 .048-.81 5.752 5.752 0 0 1 5.219 4.26zm-14.814 6.44a4.953 4.953 0 0 0 4.948-4.948 4.953 4.953 0 0 0-4.948-4.948 4.953 4.953 0 0 0-4.947 4.948 4.953 4.953 0 0 0 4.947 4.948zm-1.108-5.403a.406.406 0 0 1-.406-.405.302.302 0 0 0-.604 0 .406.406 0 1 1-.81 0 1.114 1.114 0 0 1 2.225 0 .406.406 0 0 1-.405.405zm3.632 0a.406.406 0 0 1-.405-.405.302.302 0 0 0-.604 0 .406.406 0 0 1-.811 0c0-.614.5-1.113 1.113-1.113.614 0 1.113.499 1.113 1.113a.406.406 0 0 1-.406.405zm-2.524 3.219a1.67 1.67 0 0 1-1.667-1.668.406.406 0 0 1 .811 0 .857.857 0 0 0 1.713 0 .406.406 0 0 1 .81 0 1.67 1.67 0 0 1-1.667 1.668zm4.633-11.78a.406.406 0 0 1-.406-.405V9.406a.406.406 0 1 1 .811 0v1.936a.406.406 0 0 1-.405.406zm0 1.714a.408.408 0 0 1-.287-.692.409.409 0 0 1 .692.287.407.407 0 0 1-.406.405zm-2.093-.703a.404.404 0 0 1-.287-.119l-1.345-1.345a.406.406 0 0 1 .574-.573l1.345 1.344a.406.406 0 0 1-.287.693zm4.21-.036a.404.404 0 0 1-.287-.692l1.308-1.308a.406.406 0 0 1 .573.573l-1.307 1.308a.404.404 0 0 1-.287.12z"/>
    </g>
</svg>
