<svg xmlns="http://www.w3.org/2000/svg" width="36" height="37" viewBox="0 0 36 37">
    <defs>
        <linearGradient id="a" x1="0%" y1="0%" y2="100%">
            <stop offset="0%" stop-color="#0DD0AA"/>
            <stop offset="100%" stop-color="#0098C1"/>
        </linearGradient>
    </defs>
    <g fill="none" fill-rule="evenodd">
        <g>
            <circle cx="18" cy="18.66" r="18" fill="url(#a)"/>
            <path fill="#FFF" fill-rule="nonzero" d="M26.042 18.81a.949.949 0 0 1-.088 1.143l-7.248 8.137a.947.947 0 0 1-1.413 0l-7.247-8.137a.948.948 0 0 1-.087-1.144l2.266-3.49a.943.943 0 0 1 .794-.431h9.97c.322 0 .618.161.794.432l2.26 3.49zm-3.511-3.11h-3.802l1.901 2.938 1.9-2.939zm-2.646 3.279L18 16.066l-1.886 2.913h3.77zm-2.615-3.28H13.48l1.895 2.93 1.896-2.93zm-4.541.334l-1.914 2.946h3.819l-1.905-2.946zm-1.742 3.757l6.241 7.007-2.159-7.007h-4.082zM18 26.546l2.08-6.756h-4.162L18 26.546zm.771.251l6.242-7.007H20.93l-2.159 7.007zm2.605-7.818h3.81l-1.907-2.944-1.903 2.944zm-12.53 0a.406.406 0 0 1 0 .811H8.02a.406.406 0 0 1 0-.811h.825zm19.133 0a.406.406 0 0 1 0 .811h-.825a.406.406 0 0 1 0-.811h.825zm-2.63-6.935a.406.406 0 0 1 0 .573L24 13.965a.404.404 0 0 1-.574 0 .406.406 0 0 1 0-.574l1.347-1.347a.406.406 0 0 1 .574 0zm-12.758 1.34a.406.406 0 1 1-.574.574l-1.348-1.348a.406.406 0 0 1 .574-.574l1.348 1.348zM18.01 9c.223 0 .405.182.405.406v2.643a.406.406 0 0 1-.811 0V9.406c0-.224.181-.406.405-.406zm.286 4.135a.407.407 0 0 1 0 .573.407.407 0 0 1-.693-.287.409.409 0 0 1 .406-.405c.107 0 .211.043.287.119z"/>
        </g>
    </g>
</svg>
