<svg xmlns="http://www.w3.org/2000/svg" width="24" height="24" viewBox="0 0 24 24">
    <path fill="#0DD0AA" fill-rule="evenodd" d="M19.716 4.173c1.824 2.638 2.245 5.978 1.127 8.935-.296.8-.77 1.581-1.407 2.32l-7.047 8.277a.839.839 0 0 1-1.278 0l-7.049-8.28c-.633-.734-1.108-1.517-1.406-2.323-1.116-2.95-.695-6.29 1.128-8.93C5.616 1.523 8.52 0 11.75 0c3.23 0 6.134 1.521 7.966 4.173zm-.445 8.347c.925-2.446.575-5.208-.935-7.393-1.515-2.192-3.915-3.449-6.586-3.449-2.67 0-5.071 1.257-6.585 3.45-1.51 2.184-1.86 4.946-.938 7.386.23.623.604 1.233 1.11 1.819l6.413 7.534 6.41-7.53a.03.03 0 0 1 .004-.004c.506-.586.879-1.196 1.107-1.813zm-7.52-7.541c2.59 0 4.699 2.108 4.699 4.7 0 2.59-2.108 4.699-4.7 4.699a4.704 4.704 0 0 1-4.699-4.7c0-2.591 2.108-4.699 4.7-4.699zm0 7.72a3.024 3.024 0 0 0 3.02-3.02 3.024 3.024 0 0 0-3.02-3.022 3.024 3.024 0 0 0-3.022 3.021A3.024 3.024 0 0 0 11.75 12.7z"/>
</svg>
